<?xml version="1.0" standalone="no"?>
<!DOCTYPE svg PUBLIC "-//W3C//DTD SVG 20010904//EN"
 "http://www.w3.org/TR/2001/REC-SVG-20010904/DTD/svg10.dtd">
<svg version="1.0" xmlns="http://www.w3.org/2000/svg"
 width="700.000000pt" height="700.000000pt" viewBox="0 0 700.000000 700.000000"
 preserveAspectRatio="xMidYMid meet">
<metadata>
Created by potrace 1.11, written by Peter Selinger 2001-2013
</metadata>
<g transform="translate(0.000000,700.000000) scale(0.100000,-0.100000)"
fill="#000000" stroke="none">
<path d="M387 5763 c-1 -1 -24 -3 -52 -4 -155 -9 -269 -96 -319 -244 -15 -46
-16 -145 -13 -1225 2 -646 6 -1188 10 -1205 4 -16 12 -59 18 -95 24 -136 69
-300 112 -405 180 -439 480 -792 869 -1024 275 -164 565 -258 888 -288 97 -9
1416 -9 1535 0 119 9 189 19 272 38 27 6 55 12 63 14 164 34 384 123 565 228
177 103 448 336 555 477 19 25 37 47 40 50 17 15 104 148 151 230 97 169 175
359 209 510 7 30 16 65 21 77 l8 22 59 -23 c84 -33 149 -48 272 -63 119 -15
341 -3 420 22 10 3 28 8 41 10 82 16 294 118 387 188 79 58 181 155 228 213
59 75 151 222 159 254 1 3 11 26 23 52 63 140 92 307 87 498 -2 69 -6 136 -9
150 -3 14 -9 41 -12 60 -20 119 -96 297 -182 425 -143 212 -311 346 -572 459
-44 19 -171 53 -225 60 -22 3 -60 8 -85 12 -140 19 -350 -5 -497 -56 l-53 -18
-1 26 c0 15 -1 90 -3 167 -2 126 -5 146 -27 195 -33 71 -71 115 -134 155 -54
34 -77 42 -141 51 -35 5 -4663 12 -4667 7z m5552 -1236 c80 -23 186 -92 241
-155 210 -242 147 -625 -130 -786 -198 -115 -453 -86 -614 71 -83 80 -79 64
-78 341 0 136 1 267 1 291 1 40 6 49 66 107 73 71 119 99 215 130 86 28 209
28 299 1z"/>
</g>
</svg>
