<svg viewBox="0 0 240 190" xmlns="http://www.w3.org/2000/svg" fill-rule="evenodd" clip-rule="evenodd" stroke-linejoin="round" stroke-miterlimit="1.414"><path fill="none" d="M0 0h240v190H0z"/><clipPath id="a"><path d="M0 0h240v190H0z"/></clipPath><g clip-path="url(#a)" fill="#f40"><path d="M67.42 0c17.84.002 46.565.797 52.787.975a.996.996 0 0 1 .761.391c.183.238.251.547.186.841l-2.209 9.921s12.475 36.373 12.475 85.399c0 51.875-3.768 84.388-3.768 84.388l6.862 6.328c.305.281.408.723.259 1.112a1 1 0 0 1-.933.645H1a.999.999 0 0 1-.932-.645 1.017 1.017 0 0 1 .258-1.112l6.863-6.328S3.42 149.402 3.42 97.527c0-49.026 12.475-85.399 12.475-85.399l-2.208-9.921a1.016 1.016 0 0 1 .185-.841.999.999 0 0 1 .761-.391C20.855.797 49.58.002 67.42 0z" fill-opacity=".5"/><path d="M75.789 82.504a2 2 0 0 1 3.305-.236c2.89 3.909 2.535 11.121-1.281 17.732-3.817 6.611-9.886 10.524-14.707 9.915a1.938 1.938 0 0 1-1.404-2.889c2.985-5.292 11.049-19.26 14.087-24.522zm-2.598-1.5a1.997 1.997 0 0 0-1.448-2.98c-4.83-.548-10.898 3.365-14.715 9.976-3.817 6.611-4.171 13.823-1.234 17.694a1.94 1.94 0 0 0 3.205-.229c3.09-5.231 11.154-19.199 14.192-24.461z"/><path d="M67.646 59.001a35.84 35.84 0 0 1 5.101.403 34.757 34.757 0 0 1 9.071 2.69 35.102 35.102 0 0 1 9.439 6.287 35.232 35.232 0 0 1 7.136 9.315 34.795 34.795 0 0 1 3.359 9.468c.75 3.782.869 7.688.358 11.51a34.796 34.796 0 0 1-3.052 10.303 35.178 35.178 0 0 1-18.02 17.271 34.727 34.727 0 0 1-6.781 2.083 35.11 35.11 0 0 1-6.611.668 34.87 34.87 0 0 1-13.45-2.587 35.15 35.15 0 0 1-18.229-17.053 34.824 34.824 0 0 1-3.176-10.249 35.304 35.304 0 0 1 .176-11.302 34.84 34.84 0 0 1 3.094-9.358 35.19 35.19 0 0 1 16.575-16.179 34.798 34.798 0 0 1 9.024-2.798 35.92 35.92 0 0 1 5.986-.472zm-.401 8c-1.32.012-2.637.111-3.942.311a26.788 26.788 0 0 0-7.132 2.138 27.194 27.194 0 0 0-12.725 12.125 26.821 26.821 0 0 0-2.51 7.145 27.276 27.276 0 0 0-.229 9.23 26.793 26.793 0 0 0 2.373 7.744 27.184 27.184 0 0 0 5.718 7.847 27.138 27.138 0 0 0 8.426 5.466 26.815 26.815 0 0 0 10.372 1.992 26.8 26.8 0 0 0 10.324-2.119 27.112 27.112 0 0 0 8.356-5.565 27.146 27.146 0 0 0 5.625-7.917 26.829 26.829 0 0 0 2.28-7.784 27.247 27.247 0 0 0-.379-9.387A26.823 26.823 0 0 0 91.086 81a27.198 27.198 0 0 0-12.865-11.751 26.795 26.795 0 0 0-6.851-1.962 27.64 27.64 0 0 0-4.125-.286z" fill-opacity=".5" fill-rule="nonzero"/><path d="M158 138c2.208 0 4 1.792 4 4v24c0 13.246-10.754 24-24 24h-14c-11.575 0-21.247-8.212-23.503-19.122l-.207.087A14.007 14.007 0 0 1 95 172c-1.81 0-3.614-.35-5.29-1.035a14.092 14.092 0 0 1-7.329-6.898 13.924 13.924 0 0 1-1.245-4.11 14.102 14.102 0 0 1 .115-4.606c.248-1.293.681-2.55 1.282-3.722a14.072 14.072 0 0 1 6.553-6.32 13.92 13.92 0 0 1 5.733-1.308h.362c.653.013 1.304.062 1.95.16.98.15 1.943.406 2.869.76V142c0-2.208 1.792-4 4-4h54zm-58 16.686a6.092 6.092 0 0 0-2.342-2.066 5.908 5.908 0 0 0-2.421-.615c-.106-.004-.211-.005-.316-.004a5.913 5.913 0 0 0-2.449.556 6.045 6.045 0 0 0-1.814 1.307 6.022 6.022 0 0 0-1.19 1.807 5.913 5.913 0 0 0-.428 1.632 5.94 5.94 0 0 0 .787 3.737 6.084 6.084 0 0 0 2.778 2.463c.729.319 1.52.486 2.315.496a5.99 5.99 0 0 0 2.343-.44 6.056 6.056 0 0 0 2.737-2.245v-6.628z"/><g><path d="M235 90h-80l-4.79 95.8a4 4 0 0 0 3.995 4.2h81.59a3.998 3.998 0 0 0 3.995-4.2L235 90z" fill-opacity=".3"/><path d="M151.802 153.96L153.2 126h83.6l1.398 27.96-.198.04h-86l-.198-.04z" fill-opacity=".5"/><path d="M236.522 82.392A2.001 2.001 0 0 0 234.56 80h-79.12a2 2 0 0 0-1.962 2.392L155 90h80l1.522-7.608z"/><ellipse cx="195" cy="140" rx="28" ry="21"/><path d="M176.682 63.912c.212.012.421.04.626.092.236.061.459.152.674.264 2.356 1.313 4.672 2.695 7.007 4.044a2.992 2.992 0 0 1 1.373 1.734c.079.261.121.532.127.804a3.026 3.026 0 0 1-1.102 2.384 3.006 3.006 0 0 1-3.318.318c-2.356-1.313-4.672-2.696-7.008-4.044a2.977 2.977 0 0 1-1.373-1.734 3.004 3.004 0 0 1 1.587-3.574 2.98 2.98 0 0 1 1.226-.289c.09-.001.09-.001.181.001zm36.817-.001a2.978 2.978 0 0 1 1.307.329 3.02 3.02 0 0 1 1.459 1.663 3.002 3.002 0 0 1-1.248 3.559c-2.315 1.383-4.671 2.698-7.006 4.046a3.034 3.034 0 0 1-1.199.387 3.018 3.018 0 0 1-2.128-.605 3.04 3.04 0 0 1-.572-.578 3.023 3.023 0 0 1-.499-2.579 3.014 3.014 0 0 1 1.32-1.775c2.315-1.383 4.67-2.698 7.006-4.046.159-.089.321-.167.493-.228.286-.102.583-.155.886-.172.091-.002.09-.002.181-.001zm-18.353-10.907c.325.021.642.083.946.202a3.02 3.02 0 0 1 1.72 1.748c.113.306.171.624.186.949.044 2.699.002 5.398.002 8.097a3.016 3.016 0 0 1-.862 2.104 2.99 2.99 0 0 1-.694.526 3 3 0 0 1-4.442-2.533C191.958 61.399 192 58.699 192 56c.006-.358.063-.71.188-1.046a3.022 3.022 0 0 1 1.811-1.782c.308-.109.627-.161.952-.172.098 0 .097 0 .195.004z" fill-opacity=".5"/></g></g></svg>