<svg viewBox="0 0 240 190" xmlns="http://www.w3.org/2000/svg" fill-rule="evenodd" clip-rule="evenodd" stroke-linejoin="round" stroke-miterlimit="1.414"><path fill="none" d="M0 0h240v190H0z"/><clipPath id="a"><path d="M0 0h240v190H0z"/></clipPath><g clip-path="url(#a)" fill="#f40"><path d="M92.316 32H105a2 2 0 0 1 1.6 3.2L93.489 52.682m7.545 133.092A3.997 3.997 0 0 1 97.041 190H15.493a3.999 3.999 0 0 1-3.995-4.213L19.684 32h72.632l8.718 153.774z" fill-opacity=".3"/><path d="M18.989 45.055l-.429 8.057-.468.038c-1.09.174-2.154.5-3.154.967a12.12 12.12 0 0 0-3.917 2.927 12.032 12.032 0 0 0-2.023 3.159 12.065 12.065 0 0 0-.691 7.51c.252 1.091.66 2.146 1.207 3.123a12.103 12.103 0 0 0 5.957 5.28l1.835.55-.429 8.073a18.475 18.475 0 0 1-4.207-1.127c-.753-.3-1.488-.64-2.2-1.027a20.122 20.122 0 0 1-7.938-7.843 19.901 19.901 0 0 1-2.019-5.228 20.125 20.125 0 0 1-.222-7.929 19.876 19.876 0 0 1 1.378-4.59 20.027 20.027 0 0 1 3.054-4.898 20.145 20.145 0 0 1 6.392-5.017 19.896 19.896 0 0 1 5.47-1.789l2.404-.236zM54 11.658A6.006 6.006 0 0 1 50 6c0-3.311 2.689-6 6-6s6 2.689 6 6a6.006 6.006 0 0 1-4 5.658v2.04A45.116 45.116 0 0 1 92.316 32H19.684A45.116 45.116 0 0 1 54 13.698v-2.04z"/><path d="M218 132c0-2.208-1.792-4-4-4h-68c-2.208 0-4 1.792-4 4v16c0 2.208 1.792 4 4 4h68c2.208 0 4-1.792 4-4v-16z" fill-opacity=".5"/><path d="M236 110v76c0 2.208-1.792 4-4 4H130c-2.208 0-4-1.792-4-4v-76h110zm-35.389-10a28.027 28.027 0 0 0 8.309-17.88 1.987 1.987 0 0 0-1.982-2.106C198.147 80 163.853 80 155.062 80a2 2 0 0 0-1.997 2.121A28.12 28.12 0 0 0 161.389 100h39.222zM183 76h-4c0-2.375-.014-4.749.001-7.124a10.023 10.023 0 0 1 2.67-6.679 9.997 9.997 0 0 1 7.205-3.196c10.391-.063 20.783.128 31.173-.002.214-.008.424-.044.625-.116a2.018 2.018 0 0 0 1.192-1.163c.091-.235.131-.481.134-.733V53h4v4.012a6.046 6.046 0 0 1-.303 1.872 6.026 6.026 0 0 1-1.561 2.463 6.021 6.021 0 0 1-3.396 1.607 6.499 6.499 0 0 1-.591.044c-10.432.131-20.867-.19-31.298.004a6.145 6.145 0 0 0-1.874.349 6.04 6.04 0 0 0-2.375 1.567 6.024 6.024 0 0 0-1.251 2.059 6.123 6.123 0 0 0-.351 2.029V76z" fill-opacity=".5"/><path d="M180 136c2.208 0 4 1.792 4 4s-1.792 4-4 4-4-1.792-4-4 1.792-4 4-4zm58-36a2 2 0 0 1 2 2v6a2 2 0 0 1-2 2H124a2 2 0 0 1-2-2v-6a2 2 0 0 1 2-2h114zm-51-20a6 6 0 1 0-12 0h12zm33-33c0-2.208 1.792-4 4-4s4 1.792 4 4v6c0 2.208-1.792 4-4 4s-4-1.792-4-4v-6zM146 138c2.208 0 4 1.792 4 4v24c0 13.246-10.754 24-24 24h-14c-11.575 0-21.247-8.212-23.503-19.122l-.207.087A14.007 14.007 0 0 1 83 172c-1.81 0-3.614-.35-5.29-1.035a14.092 14.092 0 0 1-7.329-6.898 13.924 13.924 0 0 1-1.245-4.11 14.102 14.102 0 0 1 .115-4.606c.248-1.293.681-2.55 1.282-3.722a14.072 14.072 0 0 1 6.553-6.32 13.92 13.92 0 0 1 5.733-1.308h.362c.653.013 1.304.062 1.95.16.98.15 1.943.406 2.869.76V142c0-2.208 1.792-4 4-4h54zm-58 16.685a6.09 6.09 0 0 0-2.342-2.065 5.908 5.908 0 0 0-2.421-.615c-.106-.004-.211-.005-.316-.004a5.913 5.913 0 0 0-2.449.556 6.061 6.061 0 0 0-3.004 3.114 5.913 5.913 0 0 0-.428 1.632 5.94 5.94 0 0 0 .787 3.737 6.084 6.084 0 0 0 2.778 2.463c.729.319 1.52.486 2.315.496a5.99 5.99 0 0 0 2.343-.44A6.028 6.028 0 0 0 88 161.314v-6.629zm12.682-32.773c.242.014.48.049.714.116.204.059.398.142.586.24 2.356 1.313 4.672 2.695 7.007 4.044a3.016 3.016 0 0 1 .935.844 3.02 3.02 0 0 1 .54 2.145 3.027 3.027 0 0 1-1.448 2.192 2.983 2.983 0 0 1-1.647.414 3.003 3.003 0 0 1-1.3-.355c-2.356-1.313-4.672-2.696-7.008-4.044a2.996 2.996 0 0 1-1.445-3.169 2.993 2.993 0 0 1 .782-1.507c.251-.262.55-.477.877-.633a3.01 3.01 0 0 1 1.226-.289c.091 0 .09 0 .181.002zm36.817-.002a3.01 3.01 0 0 1 1.226.289 3.014 3.014 0 0 1 1.398 1.37 3.002 3.002 0 0 1-1.106 3.892c-2.315 1.384-4.671 2.698-7.006 4.047a3.034 3.034 0 0 1-1.199.387 3.018 3.018 0 0 1-2.128-.605 3.023 3.023 0 0 1-1.173-2.35 3.033 3.033 0 0 1 .464-1.634 3.027 3.027 0 0 1 .958-.948c2.315-1.383 4.67-2.698 7.006-4.046.159-.089.321-.167.493-.228.286-.102.583-.155.886-.172.091-.002.09-.002.181-.002zm-18.353-10.906c.325.021.642.083.946.202a3.02 3.02 0 0 1 1.72 1.748c.113.306.171.624.186.949.044 2.699.002 5.398.002 8.097a3.018 3.018 0 0 1-.931 2.172 3 3 0 0 1-5.067-2.075c-.044-2.699-.002-5.398-.002-8.097.006-.358.063-.71.188-1.046a3.022 3.022 0 0 1 1.811-1.782c.308-.109.627-.161.952-.172.098 0 .098 0 .195.004z"/></g></svg>