<svg viewBox="0 0 240 190" xmlns="http://www.w3.org/2000/svg" fill-rule="evenodd" clip-rule="evenodd" stroke-linejoin="round" stroke-miterlimit="1.414"><path fill="none" d="M0 0h240v190H0z"/><clipPath id="a"><path d="M0 0h240v190H0z"/></clipPath><g clip-path="url(#a)" fill="#f40"><path d="M99.678 20h14a2 2 0 0 1 1.6 3.2l-12.487 16.649V174h-76v-53.291l-2.638-2.238c-.543-.467-1.084-.936-1.618-1.414a87.761 87.761 0 0 1-3.425-3.229 82.347 82.347 0 0 1-3.788-4.028 76.794 76.794 0 0 1-3.066-3.72 70.793 70.793 0 0 1-2.458-3.385C7.134 98.788 4.867 94.6 3.176 90.181c-1.201-3.136-2.111-6.389-2.644-9.706-.742-4.623-.75-9.392.247-13.977.604-2.778 1.579-5.478 2.949-7.971a26.203 26.203 0 0 1 3.531-4.966 25.108 25.108 0 0 1 5.032-4.267 26.124 26.124 0 0 1 5.969-2.831 29.144 29.144 0 0 1 5.914-1.268c.87-.096 1.743-.153 2.617-.179V20h72.887zM26.791 55.021l-.035.001c-1.93.088-3.851.406-5.678 1.044a15.99 15.99 0 0 0-3.543 1.746 15.12 15.12 0 0 0-3.738 3.516c-.3.396-.582.807-.845 1.229-2.021 3.251-2.88 7.112-2.948 10.909-.012.702.002 1.405.041 2.106.046.827.126 1.651.236 2.472a36.785 36.785 0 0 0 1.383 6.122c.808 2.572 1.87 5.061 3.119 7.449a56.416 56.416 0 0 0 4.897 7.708c2.151 2.863 4.545 5.539 7.111 8.034V55.021z" fill-opacity=".3"/><path d="M26.791 16c0-2.208 1.792-4 4-4h68c2.208 0 4 1.792 4 4v4h-76v-4z"/><path d="M62.791 174V8h-8a2 2 0 0 1-2-2V2a2 2 0 0 1 2-2h20a2 2 0 0 1 2 2v4a2 2 0 0 1-2 2h-8v166h36v8l5.549 6.341a1.002 1.002 0 0 1-.753 1.659H21.995a.999.999 0 0 1-.753-1.659L26.791 182v-8h36z" fill-opacity=".5"/><path d="M217 124c2.208 0 4 1.792 4 4v6.541a14.774 14.774 0 0 1 1.717-.368 15.876 15.876 0 0 1 2.089-.172h.388a14.9 14.9 0 0 1 6.142 1.401 15.077 15.077 0 0 1 7.022 6.772 14.863 14.863 0 0 1 1.373 3.988c.312 1.623.353 3.298.123 4.935a14.913 14.913 0 0 1-1.334 4.404 15.064 15.064 0 0 1-7.852 7.39 15.03 15.03 0 0 1-10.111.438C218.017 178.458 204.846 190 189 190h-12c-17.661 0-32-14.339-32-32v-30c0-2.208 1.792-4 4-4h68zm4 30.743c.401.28.831.519 1.281.71.83.351 1.726.535 2.626.546a6.985 6.985 0 0 0 2.732-.513 7.045 7.045 0 0 0 2.187-1.42 7.048 7.048 0 0 0 1.487-2.039 6.925 6.925 0 0 0 .606-1.955 7.092 7.092 0 0 0-.098-2.657 6.914 6.914 0 0 0-.702-1.816 7.106 7.106 0 0 0-3.017-2.876 6.914 6.914 0 0 0-3.194-.722 6.922 6.922 0 0 0-3.908 1.257v11.485zM56 134.541V128c0-2.208 1.792-4 4-4h68c2.208 0 4 1.792 4 4v30c0 17.661-14.339 32-32 32H88c-15.846 0-29.017-11.542-31.557-26.671a15.03 15.03 0 0 1-10.111-.438 15.064 15.064 0 0 1-7.852-7.39 14.913 14.913 0 0 1-1.334-4.404 15.084 15.084 0 0 1 .123-4.935 14.863 14.863 0 0 1 1.373-3.988 15.089 15.089 0 0 1 7.022-6.772 14.9 14.9 0 0 1 6.142-1.401h.388c.7.014 1.397.066 2.089.172.579.089 1.153.211 1.717.368zm0 8.717a6.925 6.925 0 0 0-4.092-1.257 6.893 6.893 0 0 0-2.858.649 7.1 7.1 0 0 0-2.997 2.659 6.93 6.93 0 0 0-.833 1.939 7.094 7.094 0 0 0-.163 2.652 6.88 6.88 0 0 0 .558 1.973 7.074 7.074 0 0 0 3.59 3.547 7.016 7.016 0 0 0 5.356.097c.508-.2.992-.461 1.439-.775v-11.484z"/><g><path d="M205 54c0-19.317-15.683-35-35-35s-35 15.683-35 35 15.683 35 35 35a35.003 35.003 0 0 0 17.87-4.906l13.664 3.913a2 2 0 0 0 2.473-2.473l-3.913-13.664A35.003 35.003 0 0 0 205 54z" fill-opacity=".5"/><path d="M175.975 59.092a3.005 3.005 0 0 1 2.277 1.164c1.617 2.158 3.17 4.362 4.755 6.543a2.993 2.993 0 0 1 .546 2.167 3.02 3.02 0 0 1-.244.843 3.023 3.023 0 0 1-1.954 1.651 2.986 2.986 0 0 1-2.141-.227 3.028 3.028 0 0 1-1.008-.837c-1.617-2.157-3.171-4.361-4.755-6.542a2.998 2.998 0 0 1 1.156-4.481 2.98 2.98 0 0 1 1.192-.282c.088-.001.087-.001.176.001zm-11.774-.001a3 3 0 0 1 2.399 4.691c-1.553 2.204-3.168 4.363-4.753 6.544a3.028 3.028 0 0 1-1.061.907 3.023 3.023 0 0 1-2.557.083 3.031 3.031 0 0 1-1.326-1.121 3.004 3.004 0 0 1-.142-3.022c.055-.104.116-.204.181-.302 1.553-2.204 3.168-4.363 4.753-6.544a3.02 3.02 0 0 1 1.551-1.106 3.173 3.173 0 0 1 .955-.13zm-11.234-13.652c.127.006.253.015.379.035.125.02.248.049.371.083 2.579.793 5.133 1.666 7.699 2.5a3.01 3.01 0 0 1 1.713 1.428 3.02 3.02 0 0 1 .166 2.487 3.015 3.015 0 0 1-1.256 1.507 3.021 3.021 0 0 1-2.014.395 3.632 3.632 0 0 1-.372-.083c-2.579-.793-5.133-1.666-7.699-2.5a3.011 3.011 0 0 1-1.713-1.428 3.024 3.024 0 0 1-.131-2.576c.122-.293.29-.566.497-.807a3.015 3.015 0 0 1 2.169-1.04c.095-.002.095-.002.191-.001zm34.257.001a2.996 2.996 0 0 1 2.587 1.674 3.02 3.02 0 0 1 .033 2.579 3.009 3.009 0 0 1-1.708 1.567c-2.553.874-5.132 1.669-7.698 2.503a3.014 3.014 0 0 1-1.411.108 3.023 3.023 0 0 1-2.071-1.388 3.01 3.01 0 0 1-.209-2.741 2.994 2.994 0 0 1 1.746-1.654c2.553-.875 5.133-1.67 7.699-2.503.122-.038.243-.071.369-.095.125-.024.25-.037.377-.047.096-.004.19-.005.286-.003zm-17.078-12.436c.325.021.642.083.946.202a3.02 3.02 0 0 1 1.72 1.748c.113.306.171.624.186.949.044 2.699.002 5.398.002 8.097a3.016 3.016 0 0 1-.347 1.401 3.024 3.024 0 0 1-2.026 1.533 2.99 2.99 0 0 1-1.719-.14 3 3 0 0 1-1.906-2.697C166.958 41.398 167 38.699 167 36c.005-.326.052-.645.156-.955a3.022 3.022 0 0 1 1.752-1.839 3.131 3.131 0 0 1 1.043-.206c.098 0 .098 0 .195.004z"/></g></g></svg>