<svg viewBox="0 0 240 190" xmlns="http://www.w3.org/2000/svg" fill-rule="evenodd" clip-rule="evenodd" stroke-linejoin="round" stroke-miterlimit="1.414"><path fill="none" d="M0 0h240v190H0z"/><clipPath id="a"><path d="M0 0h240v190H0z"/></clipPath><g clip-path="url(#a)" fill="#f40"><path d="M36.682 67.912c.212.012.421.039.626.092.236.061.459.152.674.263 2.356 1.313 4.672 2.696 7.007 4.044a3.044 3.044 0 0 1 .935.845 3.02 3.02 0 0 1 .54 2.145 3.023 3.023 0 0 1-1.448 2.191 2.976 2.976 0 0 1-1.647.415 3.003 3.003 0 0 1-1.3-.355c-2.356-1.313-4.672-2.696-7.008-4.044a3.014 3.014 0 0 1-1.345-1.648 2.998 2.998 0 0 1 2.785-3.95c.091 0 .09 0 .181.002zm36.817-.002a3.044 3.044 0 0 1 1.226.289 3.03 3.03 0 0 1 1.398 1.37c.121.243.209.503.261.77a3.02 3.02 0 0 1-.41 2.174 2.987 2.987 0 0 1-.957.948c-2.315 1.384-4.671 2.698-7.006 4.047a2.97 2.97 0 0 1-1.199.386 2.998 2.998 0 0 1-2.7-1.182 3.023 3.023 0 0 1-.499-2.579 2.99 2.99 0 0 1 1.32-1.775c2.315-1.384 4.67-2.698 7.006-4.047.265-.147.544-.261.841-.328.177-.04.356-.061.538-.071.091-.002.09-.002.181-.002zM55.146 57.003c.325.021.642.084.946.202.79.309 1.424.953 1.72 1.748.113.306.171.624.186.95.044 2.698.002 5.398.002 8.097a3.009 3.009 0 0 1-.347 1.4 3.021 3.021 0 0 1-2.026 1.533c-.285.061-.579.08-.87.057a3.02 3.02 0 0 1-1.755-.752 3.011 3.011 0 0 1-.963-1.755 3.317 3.317 0 0 1-.037-.386C51.958 65.398 52 62.699 52 60c.005-.326.052-.646.156-.955a3.023 3.023 0 0 1 1.752-1.84 3.155 3.155 0 0 1 1.238-.202zM83 96.5V186c0 .582.125 1.135.345 1.602A46.537 46.537 0 0 1 78.974 190H31.026A55 55 0 0 1 22 96.5h61z" fill-opacity=".5"/><path d="M83 129.619V186c0 .582.125 1.135.345 1.602A46.537 46.537 0 0 1 78.974 190H31.026a55 55 0 0 1-29.939-60.381H83zM83 96.5H22l-7.266-8.72a1.999 1.999 0 0 1 1.536-3.28H83v12z"/><g><path d="M213 14c0-2.208-1.792-4-4-4H87c-2.208 0-4 1.792-4 4v172c0 2.208 1.792 4 4 4h122c2.208 0 4-1.792 4-4V14z" fill-opacity=".3"/><path d="M140.519 4A8.989 8.989 0 0 1 148 0a8.989 8.989 0 0 1 7.481 4H179c2.217.009 4 1.798 4 4v6c0 2.208-1.792 4-4 4h-62c-2.208 0-4-1.792-4-4V8a4.005 4.005 0 0 1 4-4h23.519z"/><path d="M150 144c2.208 0 4 1.792 4 4s-1.792 4-4 4h-48c-2.208 0-4-1.792-4-4s1.792-4 4-4h48zm44-16c2.208 0 4 1.792 4 4s-1.792 4-4 4h-92c-2.208 0-4-1.792-4-4s1.792-4 4-4h92zm0-16c2.208 0 4 1.792 4 4s-1.792 4-4 4h-92c-2.208 0-4-1.792-4-4s1.792-4 4-4h92zm0-16c2.208 0 4 1.792 4 4s-1.792 4-4 4h-92c-2.208 0-4-1.792-4-4s1.792-4 4-4h92zm0-16c2.208 0 4 1.792 4 4s-1.792 4-4 4h-80c-2.208 0-4-1.792-4-4s1.792-4 4-4h80zm-88 4c0-2.208-1.792-4-4-4s-4 1.792-4 4 1.792 4 4 4 4-1.792 4-4zm88-20c2.208 0 4 1.792 4 4s-1.792 4-4 4h-92c-2.208 0-4-1.792-4-4s1.792-4 4-4h92zm-88-12c0-2.208-1.792-4-4-4s-4 1.792-4 4 1.792 4 4 4 4-1.792 4-4zm88-4c2.208 0 4 1.792 4 4s-1.792 4-4 4h-80c-2.208 0-4-1.792-4-4s1.792-4 4-4h80zm0-16c2.208 0 4 1.792 4 4s-1.792 4-4 4h-92c-2.208 0-4-1.792-4-4s1.792-4 4-4h92z" fill-opacity=".5"/></g><path d="M217 124c2.208 0 4 1.792 4 4v6.541a14.774 14.774 0 0 1 1.717-.368 15.876 15.876 0 0 1 2.089-.172h.388a14.9 14.9 0 0 1 6.142 1.401 15.077 15.077 0 0 1 7.022 6.772 14.863 14.863 0 0 1 1.373 3.988c.312 1.623.353 3.298.123 4.935a14.913 14.913 0 0 1-1.334 4.404 15.064 15.064 0 0 1-7.852 7.39 15.03 15.03 0 0 1-10.111.438C218.017 178.458 204.846 190 189 190h-12c-17.661 0-32-14.339-32-32v-30c0-2.208 1.792-4 4-4h68zm4 30.743c.401.28.831.519 1.281.71.83.351 1.726.535 2.626.546a7.008 7.008 0 0 0 2.733-.513 7.04 7.04 0 0 0 2.186-1.42 7.048 7.048 0 0 0 1.487-2.039 6.912 6.912 0 0 0 .606-1.953 7.1 7.1 0 0 0-.118-2.743 6.942 6.942 0 0 0-.855-2.023 7.092 7.092 0 0 0-2.844-2.584 6.874 6.874 0 0 0-2.827-.719 7.346 7.346 0 0 0-1.349.076 6.897 6.897 0 0 0-2.926 1.177v11.485z"/></g></svg>