<svg enable-background="new 0 0 1000 1000" viewBox="0 0 1000 1000" xmlns="http://www.w3.org/2000/svg"><path clip-rule="evenodd" d="m715.8 188c27.3 0 49.4 22.1 49.4 49.4v36.1c11.4-4.4 23.4-7.5 35.4-9.3 7.9-1.2 16-1.9 24.1-2h4.5c24.5.3 48.6 5.8 70.9 16.2 34.9 16.4 63.4 43.8 81 78 7.5 14.5 12.8 30.1 15.9 45.9 3.6 18.7 4 38 1.4 56.8-2.5 17.6-7.6 34.7-15.4 50.8-18.7 38.6-50.9 68.8-90.5 85.2-20.7 8.4-43 12.8-65.3 12.8-22.4 0-44.5-4.4-65.3-12.8l-2.5-1.1c-27.9 134.7-147.3 236.1-290.1 236.1h-172.9c-163.6 0-296.4-132.8-296.4-296.3v-296.4c0-27.3 22.1-49.4 49.4-49.4zm49.5 206.1v81.8c8.3 12.5 20.1 22.1 33.8 27.7 9.2 3.7 19 5.6 29 5.5 9.8-.2 19.6-2.2 28.7-6.1 14.3-6.4 26.3-17 34.3-30.4 8.3-13.9 11.7-30.1 9.7-46.1-.8-7-2.5-13.7-5.3-20.1-3.6-8.3-8.6-15.9-14.6-22.3-6.4-6.7-14-12.1-22.4-16.2-9.5-4.4-19.8-6.7-30.2-6.9-1.2 0-2.6 0-3.9 0-10.4.3-20.6 3-29.9 7.6-12 5.8-22 14.6-29.2 25.5z" fill="#f40" fill-rule="evenodd"/></svg>